<svg width="387" height="152" viewBox="0 0 387 152" fill="none" xmlns="http://www.w3.org/2000/svg">
<path d="M5.82477 39.4394L8.17893 38.106C10.5956 36.3873 12.8821 35.2467 15.0331 34.6894C18.8404 33.6894 22.3821 34.1425 25.6581 36.0435L33.4081 51.8769C33.4914 52.2102 33.6529 52.7102 33.8873 53.3769C34.1216 54.0331 34.2935 54.58 34.4081 55.0227L35.0331 57.3769C42.9081 82.8508 47.1894 95.7935 47.8873 96.2102C48.231 95.6425 48.3977 95.1164 48.3873 94.6269L51.9081 62.5435C52.0852 60.0852 52.0852 57.1425 51.9081 53.7102C51.7414 50.2675 51.6477 47.6164 51.6373 45.7519C51.6373 43.8769 52.0644 42.08 52.9289 40.356C53.8039 38.6217 55.2466 37.4914 57.2623 36.9602C58.955 36.5175 61.6477 36.4758 65.3456 36.8352C67.955 37.1164 70.6894 40.9081 73.5539 48.2102C76.4289 55.5019 79.2519 63.6581 82.0331 72.6685C84.8091 81.6685 87.0435 87.3352 88.7414 89.6685C88.9758 90.0852 89.2623 90.2519 89.5956 90.1685C90.1477 90.0175 91.205 88.2935 92.7623 85.0019C92.9133 82.4498 93.1894 78.1425 93.5956 72.0852C93.9966 66.0331 94.3248 61.4394 94.5748 58.3144C94.8352 55.1789 95.1998 51.2675 95.6581 46.5852C96.1164 41.8925 96.6789 37.6008 97.3456 33.7102C98.0123 29.8092 98.7727 26.0539 99.6373 22.4394C100.023 20.7727 101.012 19.731 102.596 19.3144C104.273 18.8873 106.142 19.1581 108.2 20.1269C110.267 21.0852 111.517 22.4081 111.95 24.0852C112.075 24.5435 112.106 24.8925 112.054 25.1269L111.158 57.481C110.892 60.1894 110.71 63.0956 110.616 66.1894C110.517 69.2727 110.491 72.731 110.533 76.5644C110.585 80.3977 110.58 83.3508 110.512 85.4185L109.971 116.377C110.038 122.616 107.767 126.335 103.158 127.544C99.7831 128.434 96.205 127.752 92.4289 125.502C88.6633 123.241 86.2466 120.075 85.1789 116.002L84.8664 114.835C83.6581 112.517 81.356 107.627 77.9706 100.169C74.58 92.6998 71.8091 86.9602 69.6581 82.9602C69.5175 82.8664 69.3352 82.8456 69.1164 82.8977C68.5435 83.0539 68.2206 84.106 68.1373 86.0644L67.5748 134.148C67.5019 138.512 66.6373 142.2 64.9706 145.21C63.3039 148.226 61.1164 150.085 58.4081 150.794C54.2519 151.892 50.0591 150.106 45.8248 145.439C45.3769 145.554 42.4341 139.017 36.9914 125.835C31.5644 112.658 25.9706 98.4081 20.2206 83.0852C14.4706 67.7675 10.9289 57.58 9.5956 52.5227L9.3456 51.5019L5.82477 39.4394Z" fill="#00938D"/>
<path d="M0 38.5871L2.35417 37.2538C4.77083 35.535 7.05729 34.3944 9.20833 33.8371C13.0156 32.8371 16.5573 33.2903 19.8333 35.1913L27.5833 51.0246C27.6667 51.358 27.8281 51.858 28.0625 52.5246C28.2969 53.1809 28.4688 53.7278 28.5833 54.1705L29.2083 56.5246C37.0833 81.9986 41.3646 94.9413 42.0625 95.358C42.4063 94.7903 42.5729 94.2642 42.5625 93.7746L46.0833 61.6913C46.2604 59.233 46.2604 56.2903 46.0833 52.858C45.9167 49.4153 45.8229 46.7642 45.8125 44.8996C45.8125 43.0246 46.2396 41.2278 47.1042 39.5038C47.9792 37.7694 49.4219 36.6392 51.4375 36.108C53.1302 35.6653 55.8229 35.6236 59.5208 35.983C62.1302 36.2642 64.8646 40.0559 67.7292 47.358C70.6042 54.6496 73.4271 62.8059 76.2083 71.8163C78.9844 80.8163 81.2188 86.483 82.9167 88.8163C83.151 89.233 83.4375 89.3996 83.7708 89.3163C84.3229 89.1653 85.3802 87.4413 86.9375 84.1496C87.0885 81.5975 87.3646 77.2903 87.7708 71.233C88.1719 65.1809 88.5 60.5871 88.75 57.4621C89.0104 54.3267 89.375 50.4153 89.8333 45.733C90.2917 41.0403 90.8542 36.7486 91.5208 32.858C92.1875 28.9569 92.9479 25.2017 93.8125 21.5871C94.1979 19.9205 95.1875 18.8788 96.7708 18.4621C98.4479 18.035 100.318 18.3059 102.375 19.2746C104.443 20.233 105.693 21.5559 106.125 23.233C106.25 23.6913 106.281 24.0403 106.229 24.2746L105.333 56.6288C105.068 59.3371 104.885 62.2434 104.792 65.3371C104.693 68.4205 104.667 71.8788 104.708 75.7121C104.76 79.5455 104.755 82.4986 104.688 84.5663L104.146 115.525C104.214 121.764 101.943 125.483 97.3333 126.691C93.9583 127.582 90.3802 126.9 86.6042 124.65C82.8385 122.389 80.4219 119.223 79.3542 115.15L79.0417 113.983C77.8333 111.665 75.5313 106.775 72.1458 99.3163C68.7552 91.8475 65.9844 86.108 63.8333 82.108C63.6927 82.0142 63.5104 81.9934 63.2917 82.0455C62.7188 82.2017 62.3958 83.2538 62.3125 85.2121L61.75 133.295C61.6771 137.66 60.8125 141.348 59.1458 144.358C57.4792 147.374 55.2917 149.233 52.5833 149.941C48.4271 151.04 44.2344 149.254 40 144.587C39.5521 144.702 36.6094 138.165 31.1667 124.983C25.7396 111.806 20.1458 97.5559 14.3958 82.233C8.64583 66.9153 5.10417 56.7278 3.77083 51.6705L3.52083 50.6496L0 38.5871Z" fill="#59B8EF"/>
<path d="M119.162 71.8326L120.027 82.7336C120.116 84.093 120.215 85.2857 120.261 85.8794C120.47 89.4523 120.819 90.6607 122.454 93.0461C124.564 96.0565 125.777 96.9784 127.886 97.1034C129.912 97.2284 131.246 96.2076 131.36 94.3482C131.412 93.5044 131.314 92.3117 130.97 91.0201C133.34 92.4367 134.579 92.9367 136.1 93.0253C136.694 93.0617 137.543 93.0305 138.558 93.0044C142.985 92.6815 146.798 92.744 154.142 93.1867C160.642 93.5826 161.829 93.5669 162.965 93.0409C163.751 92.6659 164.496 91.5253 164.553 90.5982C164.657 88.8221 163.553 87.4836 160.376 85.343C162.376 81.7388 165.053 75.2909 167.407 68.6503C168.324 66.0826 168.517 65.6659 169.777 64.4732C170.866 63.2701 171.241 62.6971 171.298 61.7701C171.392 60.2492 170.293 58.744 167.303 56.3586C163.824 53.6034 162.761 52.9471 161.329 52.8586C160.907 52.8326 160.215 53.0461 158.996 53.5669C156.303 54.6763 155.532 54.7961 149.433 54.7648C140.621 54.744 131.871 55.1451 125.814 55.7961C122.918 53.2492 121.444 52.3951 119.923 52.3013C118.824 52.2388 118.246 53.3898 118.105 55.7544C118.053 56.5982 118.053 56.5982 118.454 62.5513L119.162 71.8326ZM130.037 85.3742C129.121 76.7596 128.662 70.2909 128.189 61.3638C129.647 62.468 130.631 62.9523 131.985 63.0305C132.912 63.0878 134.1 63.0773 135.636 62.9159C140.496 62.4471 149.147 62.2909 153.454 62.5513C156.069 62.7128 156.72 63.1763 156.626 64.7805C156.465 67.3951 154.787 74.0721 151.506 84.8898C141.261 84.7805 140.923 84.7596 132.506 85.1815L130.037 85.3742Z" fill="#00938D"/>
<path d="M116.276 68.4573L117.141 79.3584C117.229 80.7177 117.328 81.9104 117.375 82.5042C117.583 86.0771 117.932 87.2854 119.568 89.6709C121.677 92.6813 122.891 93.6031 125 93.7281C127.026 93.8531 128.359 92.8323 128.474 90.9729C128.526 90.1292 128.427 88.9365 128.083 87.6448C130.453 89.0615 131.693 89.5615 133.214 89.65C133.807 89.6865 134.656 89.6552 135.672 89.6292C140.099 89.3063 143.912 89.3688 151.255 89.8115C157.755 90.2073 158.943 90.1917 160.078 89.6656C160.865 89.2906 161.609 88.15 161.667 87.2229C161.771 85.4469 160.667 84.1084 157.49 81.9677C159.49 78.3636 162.167 71.9156 164.521 65.275C165.438 62.7073 165.63 62.2906 166.891 61.0979C167.979 59.8948 168.354 59.3219 168.412 58.3948C168.505 56.874 167.406 55.3688 164.417 52.9834C160.938 50.2281 159.875 49.5719 158.443 49.4834C158.021 49.4573 157.328 49.6709 156.109 50.1917C153.417 51.3011 152.646 51.4209 146.547 51.3896C137.734 51.3688 128.984 51.7698 122.927 52.4209C120.031 49.874 118.557 49.0198 117.037 48.9261C115.938 48.8636 115.359 50.0146 115.219 52.3792C115.167 53.2229 115.167 53.2229 115.568 59.1761L116.276 68.4573ZM127.151 81.999C126.234 73.3844 125.776 66.9156 125.302 57.9886C126.76 59.0927 127.745 59.5771 129.099 59.6552C130.026 59.7125 131.214 59.7021 132.75 59.5406C137.609 59.0719 146.26 58.9156 150.568 59.1761C153.182 59.3375 153.833 59.8011 153.74 61.4052C153.578 64.0198 151.901 70.6969 148.62 81.5146C138.375 81.4052 138.037 81.3844 129.62 81.8063L127.151 81.999Z" fill="#CB6CE6"/>
<path d="M195.972 63.6368C196.545 57.7774 196.545 56.6368 196.545 54.2045C196.545 50.9181 196.112 50.0639 192.399 47.2045C189.253 44.6316 186.539 43.491 183.967 43.491C181.68 43.491 178.821 45.6316 178.821 47.491C178.821 47.7774 178.967 48.2045 179.107 48.491C180.394 50.0639 180.394 50.2045 180.394 52.2045C180.394 61.6368 178.967 72.4962 176.68 81.9285C172.821 97.2202 166.388 108.652 155.388 119.512L149.383 125.512C149.243 125.798 148.243 126.798 146.956 128.371L147.67 129.085C151.67 125.658 155.815 124.225 160.961 124.371L166.248 122.371C170.961 120.798 170.961 120.798 171.534 120.371C172.248 120.085 171.821 120.371 172.821 119.512C177.539 115.939 183.112 109.08 186.539 102.507C190.826 94.0743 193.399 85.3608 194.972 73.0691C197.685 74.2149 199.258 74.642 201.118 74.642C201.972 74.642 203.118 74.4962 204.545 74.3556C209.404 79.9285 209.404 79.9285 213.69 85.0743C228.836 103.22 228.836 103.22 232.696 107.652C250.128 126.798 252.701 128.798 259.133 128.798C262.42 128.798 270.42 127.231 273.852 125.798L284.711 121.512C284.998 121.371 286.144 121.085 287.857 120.512V119.939C281.571 115.085 278.284 113.08 270.706 109.507C261.993 105.652 256.133 102.934 255.274 102.366C254.133 102.22 244.987 95.2202 236.696 88.2149C229.123 81.5014 225.263 78.0691 218.69 71.9285C225.836 70.642 230.555 70.0691 235.842 69.7827C246.128 69.2097 248.274 68.3556 248.274 64.4962C248.274 61.4962 246.701 59.6368 242.414 57.6368C243.701 52.7774 244.414 51.2045 245.987 48.7774C249.701 42.7722 249.701 42.7722 249.701 40.7722C249.701 38.0587 247.274 34.7722 243.269 32.0587C238.414 28.7722 233.982 26.6264 231.982 26.6264C231.555 26.6264 231.269 26.7722 230.982 26.9129L228.55 28.4858C227.696 29.0587 226.836 29.4858 226.409 29.4858C218.55 31.6264 210.831 33.6316 202.972 35.6316C192.685 38.3452 192.539 38.4858 192.539 41.2045C192.539 42.7722 193.399 43.9181 195.826 45.0587C199.258 46.9181 202.831 48.0639 204.831 48.0639C206.545 48.0639 214.69 46.0639 221.836 43.7774C223.409 43.2045 224.982 43.0587 226.123 43.0587C227.269 43.0587 227.836 43.6316 227.836 44.9181C227.836 46.9181 226.836 51.2045 224.982 58.0639L214.55 60.2097C204.404 62.2097 199.112 63.2097 198.545 63.3504C197.399 63.6368 196.972 63.7827 195.972 64.0691V63.6368Z" fill="#00938D" fill-opacity="0.9882"/>
<path d="M189.346 61.484C189.919 55.6246 189.919 54.484 189.919 52.0517C189.919 48.7652 189.487 47.9111 185.773 45.0517C182.627 42.4788 179.914 41.3382 177.341 41.3382C175.054 41.3382 172.195 43.4788 172.195 45.3382C172.195 45.6246 172.341 46.0517 172.481 46.3382C173.768 47.9111 173.768 48.0517 173.768 50.0517C173.768 59.484 172.341 70.3434 170.054 79.7757C166.195 95.0673 159.763 106.5 148.763 117.359L142.757 123.359C142.617 123.645 141.617 124.645 140.33 126.218L141.044 126.932C145.044 123.505 149.19 122.073 154.335 122.218L159.622 120.218C164.335 118.645 164.335 118.645 164.908 118.218C165.622 117.932 165.195 118.218 166.195 117.359C170.914 113.786 176.487 106.927 179.914 100.354C184.2 91.9215 186.773 83.2079 188.346 70.9163C191.059 72.0621 192.632 72.4892 194.492 72.4892C195.346 72.4892 196.492 72.3434 197.919 72.2027C202.778 77.7757 202.778 77.7757 207.065 82.9215C222.21 101.067 222.21 101.067 226.07 105.5C243.502 124.645 246.075 126.645 252.507 126.645C255.794 126.645 263.794 125.078 267.226 123.645L278.085 119.359C278.372 119.218 279.518 118.932 281.231 118.359V117.786C274.945 112.932 271.658 110.927 264.08 107.354C255.367 103.5 249.507 100.781 248.648 100.213C247.507 100.067 238.362 93.0673 230.07 86.0621C222.497 79.3486 218.638 75.9163 212.065 69.7757C219.21 68.4892 223.929 67.9163 229.216 67.6298C239.502 67.0569 241.648 66.2027 241.648 62.3434C241.648 59.3434 240.075 57.484 235.789 55.484C237.075 50.6246 237.789 49.0517 239.362 46.6246C243.075 40.6194 243.075 40.6194 243.075 38.6194C243.075 35.9059 240.648 32.6194 236.643 29.9059C231.789 26.6194 227.356 24.4736 225.356 24.4736C224.929 24.4736 224.643 24.6194 224.356 24.76L221.924 26.3329C221.07 26.9059 220.21 27.3329 219.783 27.3329C211.924 29.4736 204.205 31.4788 196.346 33.4788C186.059 36.1923 185.914 36.3329 185.914 39.0517C185.914 40.6194 186.773 41.7652 189.2 42.9059C192.632 44.7652 196.205 45.9111 198.205 45.9111C199.919 45.9111 208.065 43.9111 215.21 41.6246C216.783 41.0517 218.356 40.9059 219.497 40.9059C220.643 40.9059 221.21 41.4788 221.21 42.7652C221.21 44.7652 220.21 49.0517 218.356 55.9111L207.924 58.0569C197.778 60.0569 192.487 61.0569 191.919 61.1975C190.773 61.484 190.346 61.6298 189.346 61.9163V61.484Z" fill="#FF5757"/>
<path d="M273.191 64.0599L271.384 68.1797L264.962 82.3411C263.602 85.4297 262.238 88.3463 261.858 89.1224C260.623 91.2786 259.623 93.0911 259.316 93.612C258.16 95.6849 257.936 96.2786 257.993 97.3672C258.056 98.7057 258.691 99.5963 260.436 101.023C263.316 103.227 264.774 103.909 266.285 103.836C267.201 103.789 268.785 103.544 270.941 103.013C274.425 102.253 286.186 100.914 291.712 100.638C295.311 100.456 304.035 100.445 306.972 100.549C308.149 100.576 309.16 100.607 309.743 100.576C311.92 100.471 313.295 99.3932 314.102 97.1745C314.618 95.638 315.019 93.6015 314.967 92.6015C314.894 91.1745 314.524 90.4401 312.92 88.5911C309.561 85.0651 296.134 61.4922 290.212 48.7005C288.227 44.2682 287.868 43.7005 286.889 42.6588C286.009 41.7786 284.727 41.3411 283.139 41.4192C281.128 41.5182 279.66 42.3463 278.654 43.9922C278.118 45.0234 277.587 46.2265 276.639 49.039C277.691 49.9922 277.962 50.3151 278.774 51.5338L273.191 64.0599ZM301.342 91.9349L295.576 92.3099C287.55 92.8776 284.128 93.2161 276.358 93.9349C269.102 94.7161 268.847 94.7318 268.431 94.7526C268.181 94.763 268.009 94.6901 267.998 94.5182C267.977 94.1015 268.358 93.2422 271.686 85.9505C273.873 81.0547 275.983 76.2526 278.009 71.4557C279.207 68.5443 280.41 65.7995 281.998 62.2786C282.295 61.5078 282.821 60.3099 283.582 58.763C284.144 59.9088 284.701 60.9713 285.342 62.112C286.832 64.9765 288.316 67.8359 289.717 70.7057C291.378 73.7265 293.04 76.8307 296.368 83.039L301.342 91.9349Z" fill="#00938D" fill-opacity="0.9882"/>
<path d="M269.308 60.5458L267.501 64.6656L261.079 78.8271C259.72 81.9156 258.355 84.8323 257.975 85.6083C256.74 87.7646 255.74 89.5771 255.433 90.0979C254.277 92.1708 254.053 92.7646 254.11 93.8531C254.173 95.1917 254.808 96.0823 256.553 97.5094C259.433 99.7125 260.892 100.395 262.402 100.322C263.319 100.275 264.902 100.03 267.058 99.499C270.543 98.7385 282.303 97.4 287.829 97.124C291.428 96.9417 300.152 96.9313 303.089 97.0354C304.267 97.0615 305.277 97.0927 305.86 97.0615C308.037 96.9573 309.412 95.8792 310.22 93.6604C310.735 92.124 311.136 90.0875 311.084 89.0875C311.011 87.6604 310.642 86.926 309.037 85.0771C305.678 81.551 292.251 57.9781 286.329 45.1865C284.345 40.7542 283.985 40.1865 283.006 39.1448C282.126 38.2646 280.845 37.8271 279.256 37.9052C277.246 38.0042 275.777 38.8323 274.772 40.4781C274.235 41.5094 273.704 42.7125 272.756 45.525C273.808 46.4781 274.079 46.801 274.892 48.0198L269.308 60.5458ZM297.459 88.4208L291.694 88.7958C283.668 89.3635 280.246 89.7021 272.475 90.4208C265.22 91.2021 264.964 91.2177 264.548 91.2385C264.298 91.249 264.126 91.176 264.115 91.0042C264.095 90.5875 264.475 89.7281 267.803 82.4365C269.99 77.5406 272.1 72.7385 274.126 67.9417C275.324 65.0302 276.527 62.2854 278.115 58.7646C278.412 57.9938 278.938 56.7958 279.699 55.249C280.261 56.3948 280.819 57.4573 281.459 58.5979C282.949 61.4625 284.433 64.3219 285.834 67.1917C287.496 70.2125 289.157 73.3167 292.485 79.525L297.459 88.4208Z" fill="#FF914D"/>
<path d="M344.795 88.0617C345.249 87.5513 345.858 86.7856 346.301 86.4106C359.056 71.6606 364.946 65.1971 379.691 49.5252C384.811 44.0929 385.889 42.6815 386.097 40.2388C386.405 36.7127 383.394 33.5825 379.186 33.2179C375.389 32.8898 372.29 33.9888 367.347 37.3898C365.957 43.9679 361.915 49.6294 340.051 74.9419C336.905 68.6554 335.509 65.8013 333.306 61.2388C327.186 48.27 326.238 46.5513 320.04 36.0356C316.353 29.7023 314.071 27.5929 310.41 27.2752C304.983 26.8065 301.207 30.994 297.394 41.869C305.738 46.5565 308.78 50.9158 328.749 87.0825C328.311 90.5981 328.004 94.1242 327.587 97.369C325.634 115.244 325.634 115.244 325.54 116.327C325.129 121.077 325.457 125.202 326.4 126.926C327.113 128.218 329.077 129.208 330.837 129.359C332.603 129.51 334.696 129.01 336.28 128.051C339.014 126.51 340.545 124.593 343.306 119.499C343.967 118.192 344.295 117.536 344.931 116.499C343.478 111.181 343.17 105.275 344.15 95.52L344.394 92.6711L344.795 88.0617ZM327.811 1.4471C322.384 0.978346 317.816 4.8221 317.374 9.97314C316.905 15.4002 320.743 19.9679 326.035 20.4263C331.327 20.8846 335.894 17.0408 336.353 11.7492C336.811 6.46272 332.967 1.89501 327.811 1.4471ZM362.54 4.4471C357.113 3.97835 352.545 7.8221 352.097 12.9731C351.629 18.4002 355.472 22.9679 360.764 23.4263C366.056 23.8846 370.624 20.0408 371.082 14.7544C371.525 9.59814 367.696 4.89501 362.54 4.4471Z" fill="#00938D" fill-opacity="0.9882"/>
<path d="M338.134 86.6533C338.587 86.1429 339.196 85.3773 339.639 85.0023C352.394 70.2523 358.285 63.7887 373.03 48.1168C378.149 42.6845 379.228 41.2731 379.436 38.8304C379.743 35.3043 376.733 32.1741 372.524 31.8095C368.728 31.4814 365.629 32.5804 360.686 35.9814C359.295 42.5595 355.254 48.221 333.389 73.5335C330.243 67.247 328.847 64.3929 326.644 59.8304C320.524 46.8616 319.576 45.1429 313.379 34.6273C309.691 28.2939 307.41 26.1845 303.748 25.8668C298.321 25.3981 294.545 29.5856 290.733 40.4606C299.076 45.1481 302.118 49.5075 322.087 85.6741C321.649 89.1897 321.342 92.7158 320.925 95.9606C318.972 113.836 318.972 113.836 318.879 114.919C318.467 119.669 318.795 123.794 319.738 125.518C320.451 126.81 322.415 127.799 324.175 127.95C325.941 128.101 328.035 127.601 329.618 126.643C332.353 125.101 333.884 123.185 336.644 118.091C337.306 116.784 337.634 116.127 338.269 115.091C336.816 109.773 336.509 103.867 337.488 94.1116L337.733 91.2627L338.134 86.6533ZM321.149 0.0387101C315.722 -0.430041 311.155 3.41371 310.712 8.56475C310.243 13.9918 314.082 18.5595 319.373 19.0179C324.665 19.4762 329.233 15.6325 329.691 10.3408C330.149 5.05434 326.306 0.486626 321.149 0.0387101ZM355.879 3.03871C350.451 2.56996 345.884 6.41371 345.436 11.5648C344.967 16.9918 348.811 21.5595 354.103 22.0179C359.394 22.4762 363.962 18.6325 364.42 13.346C364.863 8.18975 361.035 3.48663 355.879 3.03871Z" fill="#FFDE59"/>
</svg>
