<svg width="655" height="360" viewBox="0 0 655 360" fill="none" xmlns="http://www.w3.org/2000/svg">
<g clip-path="url(#clip0_13_127)">
<path d="M555.665 239.004H381.917C370.081 239.004 358.73 243.705 350.361 252.074C341.992 260.443 337.291 271.794 337.291 283.63V358.004H351.291V316.964C351.291 305.129 355.992 293.778 364.361 285.409C372.73 277.04 384.081 272.338 395.917 272.338H541.665C553.5 272.338 564.851 277.04 573.22 285.409C581.589 293.778 586.291 305.129 586.291 316.964V358.004H600.291V283.63C600.291 271.794 595.589 260.443 587.22 252.074C578.851 243.705 567.5 239.004 555.665 239.004Z" fill="#F0F0F0"/>
<path d="M506.791 251.004C531.92 251.004 552.291 248.094 552.291 244.504C552.291 240.914 531.92 238.004 506.791 238.004C481.662 238.004 461.291 240.914 461.291 244.504C461.291 248.094 481.662 251.004 506.791 251.004Z" fill="#E4E4E4"/>
<path d="M541.187 246.133H480.583C465.622 231.796 454.926 217.977 463.49 206.508C463.49 203.21 464.799 200.048 467.131 197.717C469.462 195.386 472.624 194.076 475.921 194.076H545.849C549.146 194.076 552.308 195.386 554.64 197.717C556.971 200.048 558.281 203.21 558.281 206.508C561.542 219.577 555.716 232.788 541.187 246.133Z" fill="#F0F0F0"/>
<path d="M530.303 178.426C529.728 178.452 529.159 178.301 528.673 177.993C528.187 177.685 527.807 177.235 527.584 176.704C527.362 176.173 527.309 175.587 527.431 175.024C527.554 174.462 527.846 173.95 528.269 173.56L528.461 172.795C528.436 172.734 528.41 172.672 528.385 172.611C527.806 171.243 526.835 170.076 525.595 169.258C524.354 168.44 522.9 168.006 521.414 168.012C519.928 168.017 518.477 168.462 517.243 169.289C516.009 170.117 515.047 171.29 514.478 172.663C512.204 178.141 509.308 183.629 508.595 189.421C508.281 191.981 508.413 194.576 508.986 197.091C503.644 185.438 500.87 172.772 500.852 159.953C500.851 156.736 501.03 153.521 501.387 150.324C501.683 147.703 502.093 145.101 502.618 142.518C505.481 128.5 511.629 115.361 520.556 104.18C524.877 101.823 528.371 98.1977 530.568 93.7931C531.364 92.2098 531.926 90.5197 532.238 88.7752C531.75 88.8392 530.4 81.4161 530.768 80.9607C530.088 79.93 528.873 79.4176 528.131 78.4118C524.441 73.4097 519.358 74.2831 516.705 81.0806C511.036 83.9416 510.981 88.6864 514.459 93.2498C516.672 96.153 516.976 100.081 518.918 103.19C518.718 103.445 518.511 103.693 518.311 103.949C514.659 108.644 511.477 113.686 508.809 119.003C509.457 113.047 508.683 107.022 506.549 101.424C504.386 96.2066 500.333 91.8126 496.763 87.3023C492.475 81.8848 483.683 84.2491 482.927 91.1167C482.92 91.1832 482.913 91.2497 482.906 91.3161C483.436 91.6152 483.955 91.9327 484.463 92.2686C485.101 92.6948 485.595 93.3038 485.881 94.0158C486.167 94.7278 486.231 95.5096 486.065 96.2587C485.899 97.0077 485.511 97.6892 484.951 98.2138C484.391 98.7384 483.686 99.0816 482.928 99.1985L482.85 99.2105C483.039 101.121 483.373 103.015 483.849 104.876C479.269 122.586 489.156 129.036 503.273 129.326C503.585 129.486 503.888 129.645 504.2 129.797C501.519 137.394 499.838 145.307 499.198 153.337C498.836 158.074 498.857 162.833 499.262 167.567L499.238 167.4C498.215 162.135 495.407 157.385 491.288 153.952C485.169 148.926 476.526 147.075 469.925 143.035C469.224 142.585 468.408 142.345 467.574 142.343C466.741 142.341 465.924 142.577 465.22 143.024C464.517 143.471 463.955 144.11 463.603 144.865C463.25 145.621 463.121 146.461 463.231 147.287C463.24 147.346 463.249 147.405 463.258 147.464C464.242 147.865 465.2 148.326 466.126 148.846C466.657 149.145 467.176 149.463 467.683 149.799C468.321 150.225 468.816 150.834 469.102 151.546C469.388 152.258 469.452 153.04 469.286 153.789C469.12 154.538 468.731 155.219 468.172 155.744C467.612 156.268 466.906 156.612 466.148 156.729L466.07 156.74C466.014 156.748 465.967 156.756 465.911 156.764C467.592 160.779 469.951 164.473 472.886 167.687C475.75 183.147 488.048 184.614 501.204 180.112H501.212C502.655 186.384 504.746 192.49 507.452 198.33H529.745C529.825 198.082 529.897 197.826 529.969 197.579C527.905 197.708 525.834 197.585 523.8 197.211C525.454 195.182 527.108 193.136 528.762 191.107C528.799 191.069 528.834 191.029 528.866 190.987C529.705 189.948 530.552 188.917 531.391 187.879L531.391 187.877C531.436 184.693 531.07 181.516 530.303 178.426Z" fill="#F0F0F0"/>
<path d="M353.657 245.975L361.653 238.365L336.106 203.905L324.306 215.136L353.657 245.975Z" fill="#FFB6B6"/>
<path d="M345.836 242.982L357.884 230.062L363.093 235.535L383.219 232.364C384.213 232.207 385.231 232.372 386.125 232.835C387.018 233.298 387.74 234.034 388.186 234.937C388.631 235.839 388.777 236.86 388.601 237.851C388.425 238.842 387.936 239.75 387.207 240.444L372 254.918L364.227 251.999L368.356 258.387L362.622 263.844L345.836 242.982Z" fill="#2F2E41"/>
<path d="M352.291 220.004L341.291 235.004C331.981 230.044 302.267 210.362 279.507 200.052C264.797 193.372 253.447 188.292 253.447 188.292C253.447 188.292 251.917 190.462 249.477 193.872C240.547 206.372 219.457 235.462 217.447 234.382C214.897 233.012 212.007 235.462 212.367 240.482C212.627 244.142 206.437 246.812 203.057 248.002C201.787 248.442 200.917 248.682 200.917 248.682C200.337 249.052 199.757 249.422 199.187 249.772C180.677 261.082 158.987 257.892 144.087 245.772C138.75 241.467 134.397 236.068 131.322 229.939C128.246 223.811 126.519 217.094 126.257 210.242L124.927 179.242L169.927 177.242L177.937 192.452L192.147 180.872L223.257 155.522L234.617 146.262C234.617 146.262 234.317 146.222 234.677 144.862C236.1 144.091 237.589 143.448 239.127 142.942C239.387 142.852 239.647 142.772 239.907 142.702C254.557 138.382 265.667 149.622 265.667 149.622C265.667 149.622 333.621 195.574 336.291 196.004C338.961 196.444 340.497 200.732 340.817 201.752C341.127 202.712 345.381 208.134 347.291 208.004C353.251 207.614 352.291 220.004 352.291 220.004Z" fill="#2F2E41"/>
<path d="M217.388 127.165C216.134 127.582 214.987 128.269 214.029 129.18C213.071 130.09 212.327 131.201 211.848 132.432L170.584 132.205L148.633 101.844L132.317 109.067L158.873 157.182L217.004 144.214L216.97 144.093C218.317 144.616 219.769 144.807 221.205 144.651C222.641 144.494 224.018 143.995 225.22 143.194C226.422 142.393 227.414 141.314 228.111 140.049C228.809 138.784 229.192 137.37 229.227 135.926C229.263 134.482 228.95 133.051 228.316 131.753C227.682 130.455 226.745 129.329 225.583 128.47C224.422 127.61 223.071 127.043 221.645 126.816C220.218 126.589 218.758 126.709 217.388 127.165Z" fill="#FFB6B6"/>
<path d="M140.924 81.1545L140.067 81.2801C135.592 81.9309 131.549 84.3081 128.804 87.9028C126.059 91.4975 124.831 96.024 125.383 100.513C126.045 105.822 126.431 110.574 125.851 111.519C124.422 113.845 123.876 115.794 126.678 116.085C129.481 116.377 123.64 114.661 132.569 116.154C141.497 117.647 139.918 112.903 147.191 112.589C154.465 112.276 159.372 114.153 161.663 110.054C163.954 105.956 170.343 105.788 166.834 101.76C163.325 97.7333 162.375 101.211 159.532 92.6721C159.504 92.5867 159.476 92.5017 159.447 92.4171C158.164 88.6701 155.608 85.4914 152.224 83.4337C148.84 81.376 144.841 80.5695 140.924 81.1545Z" fill="#59B8EF"/>
<path d="M116.833 70.5542C115.772 71.5885 114.642 72.5507 113.453 73.4342C113.103 73.7042 112.753 73.9542 112.403 74.1842C102.253 81.0542 92.2328 78.1142 84.4228 70.9442C72.3528 59.8442 65.5728 38.6142 71.8328 27.8342C85.8528 10.7342 104.053 14.4042 115.113 26.0242C125.853 37.2942 129.873 56.0542 116.833 70.5542Z" fill="#F0F0F0"/>
<path d="M160.897 84.7923C160.037 84.2423 159.177 83.7123 158.297 83.2023C157.907 82.6723 157.507 82.1523 157.097 81.6423L160.897 84.7923Z" fill="#F2F2F2"/>
<path d="M136.377 39.4323C149.694 49.5629 164.525 57.6256 167.321 68.7744C167.321 68.7744 165.646 51.2572 173.457 54.5775C186.582 60.1563 182.142 29.8164 178.461 24.8552C172.327 16.5865 151.642 11.8882 151.642 11.8882L136.968 19.9435L136.377 39.4323Z" fill="#2F2E41"/>
<path d="M197.704 355.843C197.977 356.636 198.494 357.323 199.181 357.804C199.868 358.285 200.689 358.536 201.528 358.521L217.912 358.1C218.757 358.083 219.574 357.794 220.241 357.275C220.908 356.755 221.388 356.034 221.612 355.219L223.93 330.427C224.753 330.799 225.648 330.983 226.551 330.965C227.336 330.946 228.11 330.773 228.828 330.455C229.545 330.137 230.194 329.681 230.735 329.112C231.276 328.543 231.7 327.873 231.983 327.141C232.265 326.408 232.4 325.627 232.381 324.842C232.361 324.057 232.187 323.284 231.868 322.566C231.549 321.848 231.092 321.201 230.523 320.66C229.954 320.119 229.283 319.696 228.55 319.414C227.817 319.133 227.036 318.998 226.251 319.019C225.89 319.017 225.53 319.055 225.177 319.13C224.794 318.715 224.327 318.385 223.808 318.161C223.289 317.937 222.728 317.824 222.163 317.83L196.96 318.48C196.751 318.488 196.543 318.514 196.338 318.558C195.786 318.661 195.262 318.881 194.801 319.204C194.341 319.526 193.955 319.944 193.669 320.428C193.384 320.912 193.205 321.452 193.146 322.011C193.086 322.57 193.147 323.136 193.325 323.669L197.704 355.843ZM224.405 328.743L226.055 322.835C226.243 322.153 226.247 321.433 226.068 320.748C226.148 320.748 226.219 320.71 226.299 320.71C227.43 320.687 228.524 321.113 229.341 321.895C230.159 322.677 230.632 323.752 230.659 324.883C230.685 326.014 230.262 327.109 229.483 327.929C228.703 328.749 227.63 329.226 226.499 329.255C225.767 329.278 225.044 329.101 224.405 328.743Z" fill="#CCCCCC"/>
<path d="M196.338 318.558C196.875 321.628 202.912 323.786 210.171 323.411C216.846 323.103 222.304 320.76 223.304 317.982C222.933 317.872 222.549 317.821 222.163 317.83L196.96 318.48C196.751 318.488 196.543 318.514 196.338 318.558Z" fill="white"/>
<path d="M159.566 51.7258C172.269 51.7258 182.566 41.4284 182.566 28.7258C182.566 16.0233 172.269 5.72583 159.566 5.72583C146.864 5.72583 136.566 16.0233 136.566 28.7258C136.566 41.4284 146.864 51.7258 159.566 51.7258Z" fill="#FFB6B6"/>
<path d="M151.283 19.9255L150.398 23.8129L165.87 27.3351C165.883 26.5489 166.059 25.774 166.387 25.0591C166.714 24.3442 167.186 23.7046 167.772 23.1806C167.438 24.7049 167.477 26.2871 167.883 27.7935C176.227 32.4756 175.748 34.1344 182.491 32.9404C183.405 33.1484 184.364 32.985 185.157 32.486C185.95 31.987 186.512 31.1935 186.72 30.2798C189.434 18.3613 190.325 6.17977 178.465 3.22139C175.582 2.50058 172.585 2.36259 169.648 2.8155C166.711 3.26841 163.894 4.30308 161.362 5.8589C158.831 7.41471 156.635 9.46035 154.904 11.8758C153.173 14.2913 151.942 17.028 151.283 19.9255Z" fill="#2F2E41"/>
<path d="M268.731 164.533C268.676 164.467 268.613 164.409 268.543 164.36C268.371 164.161 268.162 163.997 267.927 163.878L266.244 162.977L255.07 150.572C254.423 150.235 253.671 150.163 252.972 150.371L252.943 150.38L248.157 151.86L244.04 153.138L238.29 154.92L199.124 167.048L173.379 175.019C172.683 175.239 172.102 175.724 171.759 176.369C171.417 177.014 171.342 177.767 171.55 178.467C171.671 178.852 171.871 179.208 172.138 179.511L172.957 180.423L174.675 182.337L178.656 190.588L179.761 191.82C180.113 192.213 180.569 192.497 181.077 192.639C181.585 192.782 182.122 192.777 182.627 192.625L267.441 169.04C267.882 168.897 268.281 168.648 268.603 168.315C268.924 167.982 269.159 167.575 269.287 167.13C269.414 166.685 269.43 166.215 269.333 165.762C269.236 165.309 269.029 164.887 268.731 164.533Z" fill="#CCCCCC"/>
<path d="M263.696 41.8275L262.053 42.0937C261.603 42.1684 261.2 42.4181 260.934 42.7884L260.21 43.8003L253.683 60.1221C253.417 60.4953 253.31 60.9587 253.386 61.4105L254.151 66.0609L251.26 149.067C251.333 149.496 251.564 149.882 251.907 150.151L264.58 167.103L264.876 167.338L265.514 167.838C265.841 168.09 266.247 168.219 266.661 168.202L267.738 168.151C267.982 168.139 268.222 168.075 268.44 167.964C268.658 167.853 268.85 167.697 269.003 167.506C269.158 167.316 269.27 167.096 269.332 166.86C269.394 166.623 269.404 166.376 269.363 166.136L265.686 43.2477C265.612 42.7963 265.361 42.393 264.989 42.1264C264.618 41.8598 264.155 41.7518 263.704 41.8262L263.696 41.8275Z" fill="#CCCCCC"/>
<path d="M260.945 48.277L255.163 65.891L252.927 136.244L261.927 144.244L260.945 48.277Z" fill="#59B8EF"/>
<path d="M146.112 57.4147L138.722 53.9512L131.446 66.6118C131.446 66.6118 111.904 94.4984 111.62 114.617C111.337 134.735 114.805 140.717 114.805 140.717C114.805 140.717 106.379 147.016 110.592 150.867C114.805 154.717 124.132 156.379 116.968 158.048C109.805 159.717 111.62 176.617 119.62 179.617C127.62 182.617 170.585 182.59 170.585 182.59C170.198 181.28 170.17 179.89 170.502 178.565C170.835 177.241 171.515 176.029 172.474 175.056C175.805 171.717 178.805 174.113 175.805 168.915C172.805 163.717 167.805 166.717 171.805 159.717C175.805 152.717 175.804 150.625 175.804 150.625C175.804 150.625 173.659 101.268 161.377 84.4323L161.638 83.9692C162.046 78.491 160.78 73.0181 158.007 68.2759C155.234 63.5336 151.086 59.7459 146.112 57.4147Z" fill="#59B8EF"/>
<path d="M155.067 35.4352C155.825 32.115 157.31 29.0044 159.415 26.3278C161.521 23.6511 164.194 21.475 167.242 19.9566C170.29 18.4382 173.637 17.6154 177.042 17.5473C180.447 17.4793 183.824 18.1678 186.931 19.5632C185.855 16.3874 183.677 13.702 180.792 11.9931L163.377 4.43228C154.787 2.47671 141.188 -3.07376 134.984 2.24155C129.267 7.12443 132.049 16.6826 126.785 22.0356C121.016 27.902 120.526 34.8386 122.162 38.8283C124.055 43.444 127.842 49.7412 132.567 51.1042C132.813 49.4798 133.623 47.9939 134.856 46.9075C134.515 48.4556 134.485 50.0559 134.768 51.6156L163.377 74.4323C160.705 72.1083 158.428 66.1204 156.861 59.3761C155.933 55.384 150.395 53.9829 154.886 47.2076C159.377 40.4323 154.458 38.1137 155.067 35.4352Z" fill="#2F2E41"/>
<path d="M144.377 265.432H154.377V344.432C154.377 345.758 153.85 347.03 152.912 347.968C151.975 348.905 150.703 349.432 149.377 349.432C148.051 349.432 146.779 348.905 145.841 347.968C144.903 347.03 144.377 345.758 144.377 344.432V265.432Z" fill="#F0F0F0"/>
<path d="M115.356 357.656L129.348 339.097C133.788 333.209 138.045 327.086 142.735 321.406C144.402 319.388 146.338 317.302 148.803 316.692C149.774 316.443 150.797 316.487 151.743 316.817C152.862 317.208 153.893 317.812 154.781 318.596C156.843 320.506 158.573 322.745 159.9 325.222C161.646 328.256 163.261 331.369 164.765 334.53C168.172 341.731 170.943 349.217 173.046 356.901C174.072 360.618 179.862 359.04 178.832 355.306C176.749 347.79 174.069 340.452 170.815 333.364C169.23 329.903 167.506 326.511 165.643 323.188C164.09 320.237 162.134 317.517 159.83 315.107C157.5 312.644 154.395 311.057 151.035 310.609C147.43 310.217 144.086 311.841 141.409 314.123C138.72 316.416 136.699 319.448 134.587 322.249L127.144 332.12L110.175 354.627C109.199 355.922 109.968 357.982 111.251 358.732C111.942 359.115 112.754 359.216 113.519 359.016C114.283 358.816 114.941 358.328 115.356 357.656Z" fill="#F0F0F0"/>
<path d="M211.377 157.432C210.055 157.431 208.75 157.722 207.554 158.283C206.358 158.844 205.3 159.663 204.457 160.68L165.377 147.432L154.139 111.692L136.377 113.393L146.377 167.432L205.629 173.487L205.635 173.361C206.747 174.283 208.064 174.924 209.476 175.229C210.888 175.534 212.353 175.494 213.746 175.114C215.14 174.734 216.421 174.024 217.483 173.044C218.544 172.064 219.354 170.843 219.843 169.484C220.333 168.125 220.489 166.668 220.297 165.237C220.105 163.805 219.572 162.44 218.741 161.259C217.911 160.077 216.808 159.112 215.526 158.446C214.245 157.78 212.821 157.432 211.377 157.432Z" fill="#FFB6B6"/>
<path d="M153.358 89.6272L152.506 89.4757C148.054 88.6796 143.467 89.6583 139.727 92.2021C135.988 94.746 133.393 98.6529 132.498 103.086C131.45 108.333 130.316 112.963 129.467 113.676C127.377 115.432 126.243 117.109 128.81 118.271C131.377 119.432 126.377 115.96 134.377 120.196C142.377 124.432 142.377 119.432 149.377 121.432C156.377 123.432 160.44 126.763 163.908 123.598C167.377 120.432 173.491 122.291 171.434 117.361C169.377 112.432 167.377 115.432 167.377 106.432C167.377 106.342 167.376 106.253 167.376 106.163C167.342 102.203 165.921 98.3796 163.36 95.3584C160.799 92.3373 157.26 90.3093 153.358 89.6272Z" fill="#59B8EF"/>
<path d="M428.791 260.004C450.606 260.004 468.291 257.094 468.291 253.504C468.291 249.914 450.606 247.004 428.791 247.004C406.976 247.004 389.291 249.914 389.291 253.504C389.291 257.094 406.976 260.004 428.791 260.004Z" fill="#E4E4E4"/>
<path d="M468.496 215.963C468.511 225.508 465.06 234.733 458.785 241.924C457.221 243.728 455.493 245.384 453.624 246.869C450.788 249.147 447.648 251.019 444.296 252.432H413.576C410.224 251.019 407.085 249.147 404.249 246.869C402.379 245.384 400.651 243.728 399.087 241.924C397.25 239.81 395.641 237.508 394.285 235.057C391.459 229.929 389.808 224.238 389.448 218.395C389.089 212.551 390.031 206.701 392.206 201.266C394.381 195.83 397.736 190.946 402.028 186.964C406.319 182.982 411.441 180.002 417.024 178.239C422.607 176.477 428.512 175.975 434.312 176.771C440.112 177.566 445.663 179.639 450.565 182.84C455.467 186.041 459.598 190.289 462.659 195.28C465.72 200.27 467.636 205.878 468.267 211.698C468.421 213.115 468.498 214.538 468.496 215.963Z" fill="#3F3D56"/>
<path d="M458.785 241.924C457.221 243.729 455.493 245.384 453.624 246.869H404.249C402.379 245.384 400.651 243.729 399.087 241.924H458.785Z" fill="#59B8EF"/>
<path d="M468.267 211.698C460.003 224.524 444.791 234.476 426.272 237.498C415.571 239.319 404.586 238.48 394.284 235.057C391.459 229.929 389.808 224.238 389.448 218.395C389.089 212.551 390.031 206.701 392.206 201.266C394.381 195.83 397.736 190.946 402.028 186.964C406.319 182.982 411.441 180.002 417.024 178.239C422.607 176.477 428.511 175.975 434.312 176.771C440.112 177.566 445.663 179.639 450.565 182.84C455.467 186.041 459.598 190.289 462.659 195.28C465.72 200.27 467.636 205.878 468.267 211.698Z" fill="#59B8EF"/>
<path d="M339.465 272.115L348.231 265.407L326.528 228.405L313.591 238.306L339.465 272.115Z" fill="#FFB6B6"/>
<path d="M332.01 268.301L345.374 256.748L349.966 262.747L370.316 261.753C371.322 261.704 372.316 261.978 373.155 262.534C373.994 263.09 374.633 263.899 374.979 264.844C375.325 265.789 375.36 266.82 375.078 267.786C374.797 268.752 374.214 269.603 373.415 270.215L356.743 282.974L349.328 279.238L352.748 286.032L346.462 290.842L332.01 268.301Z" fill="#2F2E41"/>
<path d="M340.892 246.147L328.347 259.881C319.622 253.951 292.191 231.196 270.668 218.504C256.759 210.284 246.02 204.016 246.02 204.016C246.02 204.016 244.266 206.01 241.474 209.138C231.255 220.608 207.166 247.268 205.284 245.979C202.895 244.343 199.759 246.469 199.579 251.499C199.445 255.166 193.004 257.156 189.516 257.977C188.206 258.278 187.315 258.423 187.315 258.423C186.699 258.729 186.083 259.035 185.478 259.321C165.862 268.581 144.639 263.083 131.125 249.434C126.281 244.581 122.532 238.747 120.132 232.324C117.732 225.9 116.735 219.038 117.209 212.197L119.212 181.233L164.167 184.071L170.499 200.053L185.869 190.064L219.519 168.197L231.807 160.209C231.807 160.209 231.513 160.137 232.016 158.824C233.514 158.209 235.064 157.73 236.647 157.392C236.915 157.33 237.182 157.279 237.448 157.237C252.477 154.513 262.317 166.88 262.317 166.88C262.317 166.88 324.95 219.855 327.559 220.569C330.166 221.293 331.233 225.722 331.442 226.77C331.647 227.758 335.295 233.604 337.208 233.68C343.176 233.931 340.892 246.147 340.892 246.147Z" fill="#2F2E41"/>
<path d="M138.403 281.334C128.993 261.194 60.3729 280.664 55.8629 236.654C54.6229 223.844 64.2228 212.774 73.3428 203.694C138.213 158.834 11.5529 125.684 60.7629 81.3942C68.2362 77.0414 76.172 73.5364 84.4229 70.9442C95.8129 67.5942 104.313 68.2142 110.753 71.7142C111.691 72.2261 112.593 72.8007 113.453 73.4342C141.673 94.2842 124.603 178.524 154.223 204.684C165.503 213.584 215.393 230.824 223.403 244.264C223.615 244.626 223.805 245 223.973 245.384C226.714 250.659 164.885 265.029 169.973 277.384C176.973 294.384 137.798 319.169 138.403 281.334Z" fill="#F0F0F0"/>
<path d="M5.2696e-06 358.817C-0.0004608 358.974 0.0299936 359.129 0.0896354 359.273C0.149277 359.418 0.236908 359.549 0.347509 359.66C0.45811 359.77 0.589511 359.858 0.734106 359.918C0.8787 359.977 1.03366 360.008 1.19007 360.007H653.48C653.796 360.007 654.098 359.882 654.322 359.659C654.545 359.435 654.67 359.133 654.67 358.817C654.67 358.502 654.545 358.199 654.322 357.976C654.098 357.753 653.796 357.627 653.48 357.627H1.19001C1.03361 357.627 0.87863 357.657 0.734045 357.717C0.589459 357.777 0.458102 357.864 0.347509 357.975C0.236915 358.085 0.149275 358.217 0.0896354 358.361C0.0299955 358.506 -0.000455452 358.661 5.2696e-06 358.817Z" fill="#CCCCCC"/>
<path d="M192.973 175.839C192.973 182.191 198.336 194.384 166.973 194.384C135.61 194.384 79.3979 182.19 79.3979 175.839C79.3979 169.488 104.823 164.339 136.185 164.339C167.548 164.339 192.973 169.488 192.973 175.839Z" fill="#F0F0F0"/>
</g>
<defs>
<clipPath id="clip0_13_127">
<rect width="654.67" height="360.007" fill="white"/>
</clipPath>
</defs>
</svg>
