<svg width="570" height="572" viewBox="0 0 570 572" fill="none" xmlns="http://www.w3.org/2000/svg">
<g clip-path="url(#clip0_12_52)">
<path d="M28.6622 435.064C33.144 389.317 60.2324 343.652 103.333 327.679C87.4066 375.06 88.7528 426.548 107.133 473.032C114.287 490.934 124.108 510.1 118.297 528.481C114.682 539.918 105.34 548.84 94.7874 554.542C84.2336 560.244 72.4317 563.138 60.7769 565.976L58.5199 567.944C38.818 526.415 24.1803 480.811 28.6622 435.064Z" fill="#F0F0F0"/>
<path d="M103.787 328.53C79.4519 357.253 64.1353 393.937 61.4573 431.545C60.8783 439.675 60.9986 447.974 62.9798 455.921C64.9705 463.653 68.9954 470.711 74.6362 476.361C79.79 481.735 85.684 486.636 89.4416 493.169C93.4023 500.055 93.7544 507.988 91.3611 515.475C88.4327 524.635 82.3875 532.197 76.2188 539.386C69.3697 547.369 62.1291 555.552 59.4008 565.969C59.0702 567.231 57.1311 566.644 57.4612 565.384C62.2079 547.26 79.4031 536.587 87.3081 520.169C90.9967 512.507 92.3988 503.688 88.5479 495.803C85.1805 488.908 79.1069 483.849 73.8416 478.453C68.313 472.787 64.0239 466.524 61.6995 458.891C59.3217 451.084 58.8768 442.773 59.2453 434.664C60.2183 416.28 64.0757 398.164 70.6762 380.978C78.1005 361.323 88.8325 343.082 102.408 327.046C103.248 326.054 104.622 327.544 103.787 328.53Z" fill="white"/>
<path d="M61.6827 419.275C55.3852 417.918 49.7747 414.368 45.8533 409.257C41.9319 404.146 39.9549 397.808 40.2754 391.374C40.2909 391.111 40.4075 390.865 40.6008 390.687C40.7941 390.51 41.049 390.414 41.3116 390.42C41.5743 390.426 41.8243 390.534 42.0089 390.721C42.1935 390.908 42.2983 391.159 42.3012 391.422C41.9917 397.413 43.8338 403.317 47.4952 408.069C51.1565 412.82 56.3959 416.107 62.2676 417.335C63.5433 417.603 62.9511 419.541 61.6827 419.275Z" fill="white"/>
<path d="M71.6642 473.981C82.7909 466.937 90.854 455.959 94.2459 443.234C94.5809 441.973 96.5202 442.56 96.1855 443.819C92.6312 457.054 84.217 468.461 72.6222 475.766C71.5165 476.461 70.5645 474.672 71.6642 473.981Z" fill="white"/>
<path d="M80.0293 363.192C82.3567 364.225 84.904 364.663 87.4426 364.468C89.9811 364.272 92.4314 363.45 94.5735 362.073C95.6697 361.364 96.6206 363.154 95.5315 363.858C93.1578 365.368 90.4506 366.273 87.6463 366.495C84.8421 366.717 82.0261 366.249 79.4445 365.132C79.1923 365.047 78.9819 364.869 78.8561 364.635C78.7303 364.4 78.6984 364.127 78.767 363.87C78.8458 363.613 79.0225 363.398 79.2589 363.271C79.4952 363.145 79.7721 363.116 80.0293 363.192Z" fill="white"/>
<path d="M238.013 405.668C237.342 406.131 236.67 406.593 235.997 407.072C226.996 413.333 218.518 420.316 210.647 427.95C210.029 428.53 209.411 429.128 208.812 429.725C190.045 448.32 174.894 470.237 164.128 494.363C159.853 503.967 156.315 513.883 153.544 524.023C149.719 538.029 146.685 553.518 138.692 565.101C137.871 566.319 136.976 567.484 136.012 568.592L61.0957 570.545C60.9233 570.464 60.7504 570.4 60.5771 570.319L57.5895 570.534C57.6958 570.001 57.8176 569.45 57.924 568.917C57.9844 568.608 58.0615 568.298 58.1219 567.988C58.1675 567.782 58.2139 567.575 58.2432 567.387C58.2581 567.318 58.2738 567.249 58.2892 567.197C58.3185 567.008 58.3658 566.836 58.3956 566.664C59.0677 563.585 59.7628 560.505 60.4806 557.425C60.4801 557.408 60.4801 557.408 60.4964 557.39C66.0257 533.934 73.5618 510.732 84.3799 489.412C84.7056 488.771 85.03 488.113 85.3899 487.47C90.3195 477.887 96.0241 468.724 102.447 460.07C105.979 455.343 109.748 450.798 113.74 446.452C124.075 435.242 136.109 425.728 149.401 418.258C175.901 403.371 206.867 397.125 235.808 405.042C236.548 405.245 237.273 405.448 238.013 405.668Z" fill="#F0F0F0"/>
<path d="M237.87 406.624C201.146 414.906 166.83 434.974 142.05 463.389C136.692 469.533 131.792 476.231 128.589 483.769C125.523 491.141 124.488 499.2 125.59 507.108C126.469 514.501 128.225 521.963 127.292 529.441C126.308 537.324 121.813 543.87 115.394 548.407C107.541 553.958 98.1616 556.356 88.9077 558.383C78.633 560.632 67.9252 562.807 59.475 569.482C58.4511 570.29 57.2561 568.654 58.2784 567.847C72.9803 556.234 93.1354 558.065 109.332 549.715C116.89 545.818 123.319 539.621 124.992 531.006C126.455 523.473 124.651 515.778 123.696 508.299C122.693 500.446 123.039 492.863 125.778 485.37C128.58 477.705 133.229 470.801 138.406 464.548C150.251 450.455 164.238 438.313 179.855 428.565C197.617 417.342 217.168 409.239 237.662 404.608C238.93 404.322 239.13 406.339 237.87 406.624Z" fill="white"/>
<path d="M149.617 453.728C145.405 448.854 143.063 442.641 143.01 436.199C142.956 429.758 145.193 423.507 149.323 418.562C150.162 417.565 151.751 418.822 150.911 419.821C147.057 424.417 144.974 430.241 145.036 436.239C145.098 442.238 147.303 448.016 151.252 452.532C152.109 453.514 150.469 454.705 149.617 453.728Z" fill="white"/>
<path d="M124.65 503.417C137.775 504.493 150.823 500.582 161.192 492.464C162.218 491.659 163.414 493.295 162.388 494.099C151.582 502.526 137.996 506.568 124.34 505.419C123.039 505.309 123.356 503.308 124.65 503.417Z" fill="white"/>
<path d="M198.031 419.996C199.268 422.221 201.038 424.105 203.182 425.477C205.327 426.85 207.779 427.668 210.318 427.859C211.62 427.953 211.302 429.954 210.008 429.861C207.204 429.637 204.497 428.73 202.124 427.219C199.752 425.708 197.785 423.639 196.397 421.192C196.246 420.973 196.185 420.704 196.226 420.441C196.267 420.178 196.406 419.941 196.616 419.777C196.833 419.619 197.103 419.554 197.368 419.595C197.634 419.636 197.872 419.78 198.031 419.996Z" fill="white"/>
<path d="M376.505 166.772C376.505 166.772 363.142 223.193 379.474 223.193C395.807 223.193 434.411 159.348 434.411 159.348L421.048 143.015L397.063 176.315L395.807 159.348L376.505 166.772Z" fill="#FFB6B6"/>
<path d="M430.85 161.801C438.03 161.801 443.85 155.98 443.85 148.801C443.85 141.621 438.03 135.801 430.85 135.801C423.67 135.801 417.85 141.621 417.85 148.801C417.85 155.98 423.67 161.801 430.85 161.801Z" fill="#FFB6B6"/>
<path d="M365.175 551.048L382.478 551.047L390.711 484.301L365.171 484.302L365.175 551.048Z" fill="#FFB6B6"/>
<path d="M364.565 569.1L417.778 569.098V568.425C417.778 562.932 415.595 557.664 411.711 553.78C407.827 549.895 402.559 547.713 397.066 547.713H397.065L387.345 540.339L369.209 547.714H364.564L364.565 569.1Z" fill="#2F2E41"/>
<path d="M179.038 529.459L194.521 537.185L231.693 481.14L208.841 469.736L179.038 529.459Z" fill="#FFB6B6"/>
<path d="M170.431 545.338L218.044 569.1L218.345 568.497C220.797 563.582 221.197 557.894 219.456 552.685C217.716 547.475 213.977 543.17 209.062 540.716L203.657 529.777L184.137 528.278L179.98 526.203L170.431 545.338Z" fill="#2F2E41"/>
<path d="M569.85 569.165H0V571.406H569.85V569.165Z" fill="#CCCCCC"/>
<path d="M253.298 269.128C253.298 269.128 246.383 352.276 244.898 370.094C243.88 381.262 241.384 392.247 237.474 402.759C237.474 402.759 234.505 408.698 234.505 414.637L200.85 475.801C200.85 475.801 190.566 483.36 192.05 489.299C193.535 495.238 185.85 498.801 185.85 498.801L221.292 505.631C221.292 505.631 219.807 501.177 224.261 499.692C228.715 498.208 232.261 485.329 232.261 485.329L282.017 404.243L317.652 330.005C317.652 330.005 338.439 396.82 342.893 404.243C342.893 404.243 359.225 487.39 362.195 494.814C365.164 502.238 366.649 502.238 365.164 505.208C363.68 508.177 363.68 511.147 365.164 512.631C366.649 514.116 394.86 512.631 394.86 512.631L387.436 407.213L374.073 281.007L305.774 260.221L253.298 269.128Z" fill="#2F2E41"/>
<path d="M320.167 70.6316C337.387 70.6316 351.347 56.6718 351.347 39.4515C351.347 22.2311 337.387 8.27136 320.167 8.27136C302.947 8.27136 288.987 22.2311 288.987 39.4515C288.987 56.6718 302.947 70.6316 320.167 70.6316Z" fill="#FFB6B6"/>
<path d="M377.042 116.198L339.924 93.7095C339.924 93.7095 338.896 79.7447 328.32 79.0876C323.01 78.7577 315.042 78.2533 303.085 77.4824C300.558 77.3195 298.853 91.1446 295.957 90.957L256.776 101.35L262.715 202.315C262.715 202.315 253.807 242.403 256.776 249.827C259.746 257.251 249.352 260.221 252.322 261.705C255.291 263.19 252.322 273.584 252.322 273.584C252.322 273.584 310.228 303.279 374.073 281.007L368.134 261.705C368.942 259.182 369.094 256.495 368.574 253.897C368.054 251.299 366.881 248.876 365.164 246.858C365.164 246.858 371.103 237.949 363.679 230.525C363.679 230.525 366.649 217.162 359.225 211.223L357.74 190.436L362.195 180.043L377.042 116.198Z" fill="#E6E6E6"/>
<path d="M293.111 57.2638L292.239 55.2394C292.127 54.9777 281.1 28.9103 290.874 12.8312C295.398 5.38742 303.625 1.18477 315.326 0.341019C333.633 -0.982711 346.162 3.36002 352.577 13.2394C353.652 14.9138 354.256 16.847 354.326 18.8358C354.396 20.8246 353.929 22.7954 352.974 24.5412C352.019 26.287 350.611 27.7432 348.898 28.7566C347.186 29.7701 345.232 30.3034 343.242 30.3004H342.995L339.632 25.9328L339.436 26.3576C338.218 28.9923 335.421 30.4347 332.145 30.1188C331.588 30.0788 331.095 30.5597 330.698 31.589C330.565 32.0393 330.313 32.4453 329.968 32.7645C329.624 33.0837 329.2 33.3042 328.741 33.403C326.32 33.8742 322.87 30.8254 321.326 29.3058C321.266 29.6556 321.132 29.9884 320.933 30.2819C320.733 30.5754 320.473 30.8227 320.17 31.007C318.543 31.946 316.01 30.7194 315.283 30.3288C309.492 31.5593 305.743 31.2302 304.137 29.3517C303.048 37.0553 300.711 50.9216 297.909 51.6901C297.616 51.7575 297.309 51.7289 297.034 51.6085C296.758 51.4881 296.529 51.2824 296.379 51.0217C295.704 50.1457 295.101 49.7092 294.725 49.8317C293.813 50.1217 293.275 53.1237 293.198 55.0612L293.111 57.2638Z" fill="#2F2E41"/>
<path d="M360.71 117.683L375.521 115.277C386.191 125.528 393.459 138.805 396.344 153.317C400.799 177.074 402.284 181.528 402.284 181.528L366.649 190.437L347.347 153.317L360.71 117.683Z" fill="#E6E6E6"/>
<path d="M294.987 148.583L285.834 264.617L519.419 283.043L528.572 167.008L294.987 148.583Z" fill="white"/>
<path d="M319.943 157.572C314.226 153.49 306.969 153.195 304.196 153.254C305.042 155.894 307.671 162.665 313.387 166.749C319.117 170.842 326.366 171.128 329.134 171.071C328.289 168.432 325.66 161.657 319.943 157.572Z" fill="#59B8EF"/>
<path d="M342.493 231.407L304.986 228.449C303.878 228.361 302.764 228.493 301.706 228.836C300.649 229.18 299.669 229.728 298.824 230.45C297.979 231.171 297.284 232.053 296.779 233.043C296.274 234.034 295.969 235.114 295.882 236.222C295.794 237.33 295.926 238.445 296.269 239.502C296.613 240.559 297.161 241.539 297.883 242.384C298.604 243.23 299.486 243.925 300.476 244.43C301.467 244.934 302.547 245.239 303.655 245.327L341.162 248.285C343.4 248.462 345.617 247.742 347.324 246.284C349.032 244.827 350.09 242.75 350.267 240.512C350.443 238.274 349.724 236.057 348.266 234.35C346.808 232.642 344.732 231.584 342.493 231.407Z" fill="#59B8EF"/>
<path d="M519.364 155.73L309.074 139.14C306.628 138.947 304.168 139.238 301.834 139.996C299.501 140.755 297.34 141.965 295.474 143.558C293.608 145.152 292.075 147.097 290.961 149.283C289.847 151.469 289.175 153.853 288.982 156.299L280.895 258.75C280.506 263.691 282.095 268.584 285.313 272.354C288.532 276.123 293.115 278.46 298.056 278.851L508.346 295.441C510.792 295.634 513.252 295.343 515.585 294.585C517.919 293.827 520.08 292.616 521.946 291.023C523.812 289.43 525.345 287.484 526.459 285.298C527.573 283.112 528.245 280.728 528.438 278.282L536.123 180.907L536.278 178.917L536.523 175.822C536.715 173.376 536.424 170.916 535.666 168.582C534.908 166.249 533.698 164.088 532.105 162.222C530.511 160.356 528.566 158.823 526.38 157.709C524.194 156.595 521.81 155.922 519.364 155.73ZM513.154 244.868L511.822 261.746C511.578 264.727 510.164 267.491 507.889 269.432C505.614 271.374 502.662 272.335 499.68 272.107L471.547 269.89C468.565 269.647 465.802 268.233 463.861 265.958C461.919 263.682 460.957 260.731 461.186 257.749L462.518 240.87C462.763 237.89 464.177 235.127 466.452 233.185C468.727 231.244 471.678 230.282 474.66 230.509L502.784 232.729C505.765 232.973 508.528 234.387 510.471 236.661C512.413 238.935 513.378 241.885 513.154 244.868ZM294.02 236.067C294.239 233.335 295.531 230.802 297.615 229.023C299.699 227.244 302.403 226.364 305.135 226.576L342.64 229.536C343.995 229.641 345.316 230.011 346.528 230.627C347.739 231.242 348.818 232.09 349.701 233.123C350.585 234.155 351.257 235.351 351.678 236.643C352.099 237.935 352.261 239.298 352.155 240.652C352.05 242.007 351.678 243.328 351.062 244.539C350.445 245.75 349.596 246.828 348.563 247.71C347.53 248.593 346.333 249.264 345.041 249.684C343.749 250.104 342.386 250.265 341.032 250.158L341.012 250.163L303.507 247.203C302.152 247.096 300.832 246.723 299.622 246.105C298.412 245.487 297.335 244.636 296.454 243.602C295.573 242.568 294.904 241.37 294.487 240.077C294.069 238.784 293.911 237.421 294.02 236.067ZM302.05 152.585L301.793 151.536L302.872 151.437C303.294 151.391 313.271 150.496 321.037 156.043C328.803 161.591 331.185 171.324 331.288 171.731L331.535 172.783L330.459 172.892C328.931 173.005 327.396 172.995 325.87 172.861C321.014 172.577 316.325 170.993 312.291 168.275C304.525 162.728 302.143 152.994 302.05 152.585Z" fill="#59B8EF"/>
<path d="M481.603 256.062L469.414 255.1C468.544 255.033 467.683 255.314 467.021 255.881C466.358 256.447 465.947 257.254 465.879 258.123C465.81 258.993 466.089 259.854 466.655 260.518C467.221 261.181 468.027 261.594 468.896 261.664L481.086 262.625C481.955 262.692 482.816 262.412 483.478 261.845C484.141 261.278 484.552 260.471 484.621 259.602C484.689 258.732 484.41 257.871 483.844 257.208C483.279 256.544 482.473 256.132 481.603 256.062Z" fill="#59B8EF"/>
<path d="M504.108 257.837L491.918 256.875C491.049 256.809 490.189 257.09 489.526 257.657C488.864 258.223 488.454 259.03 488.385 259.899C488.317 260.768 488.595 261.629 489.161 262.292C489.726 262.956 490.531 263.368 491.4 263.439L503.59 264.4C504.459 264.467 505.319 264.186 505.981 263.619C506.643 263.052 507.054 262.246 507.122 261.377C507.191 260.508 506.912 259.647 506.347 258.984C505.782 258.32 504.976 257.907 504.108 257.837Z" fill="#59B8EF"/>
<path d="M482.269 247.623L470.079 246.661C469.21 246.595 468.35 246.876 467.688 247.442C467.026 248.009 466.615 248.816 466.547 249.685C466.478 250.554 466.757 251.414 467.322 252.078C467.887 252.742 468.693 253.154 469.561 253.225L481.751 254.186C482.621 254.253 483.481 253.973 484.144 253.406C484.807 252.839 485.218 252.032 485.286 251.163C485.355 250.293 485.076 249.432 484.51 248.769C483.944 248.105 483.138 247.693 482.269 247.623Z" fill="#59B8EF"/>
<path d="M504.773 249.398L492.583 248.436C491.714 248.369 490.853 248.65 490.191 249.217C489.528 249.784 489.117 250.59 489.049 251.46C488.98 252.329 489.259 253.19 489.825 253.854C490.39 254.518 491.196 254.93 492.066 255L504.255 255.961C505.125 256.029 505.986 255.748 506.648 255.181C507.311 254.614 507.722 253.807 507.79 252.938C507.859 252.069 507.58 251.207 507.014 250.544C506.448 249.88 505.643 249.468 504.773 249.398Z" fill="#59B8EF"/>
<path d="M482.935 239.183L470.745 238.222C469.875 238.155 469.015 238.435 468.352 239.002C467.689 239.569 467.278 240.376 467.21 241.245C467.141 242.115 467.421 242.976 467.986 243.64C468.552 244.303 469.358 244.715 470.227 244.786L482.417 245.747C483.286 245.814 484.146 245.532 484.808 244.966C485.471 244.399 485.881 243.592 485.95 242.723C486.018 241.854 485.739 240.994 485.174 240.33C484.609 239.666 483.804 239.254 482.935 239.183Z" fill="#59B8EF"/>
<path d="M505.439 240.959L493.249 239.997C492.38 239.931 491.52 240.212 490.858 240.778C490.195 241.345 489.785 242.152 489.716 243.021C489.648 243.89 489.927 244.75 490.492 245.414C491.057 246.078 491.862 246.49 492.731 246.561L504.921 247.522C505.79 247.589 506.65 247.308 507.313 246.741C507.975 246.174 508.385 245.368 508.454 244.499C508.522 243.63 508.243 242.769 507.678 242.105C507.113 241.442 506.308 241.029 505.439 240.959Z" fill="#59B8EF"/>
<path d="M285.856 188.625L285.699 190.62L532.552 210.011L532.709 208.017L285.856 188.625Z" fill="white"/>
<path d="M536.278 178.917L536.123 180.907L527.532 180.233L435.999 173.043L436.164 171.051L527.687 178.243L536.278 178.917Z" fill="#3F3D56"/>
<path d="M234.505 157.772C234.505 157.772 221.142 214.193 237.474 214.193C253.807 214.193 292.411 150.348 292.411 150.348L279.048 134.015L255.063 167.315L253.807 150.348L234.505 157.772Z" fill="#FFB6B6"/>
<path d="M288.85 152.801C296.03 152.801 301.85 146.98 301.85 139.801C301.85 132.621 296.03 126.801 288.85 126.801C281.67 126.801 275.85 132.621 275.85 139.801C275.85 146.98 281.67 152.801 288.85 152.801Z" fill="#FFB6B6"/>
<path d="M267.592 110.259L258.684 101.35C258.684 101.35 240.866 111.744 239.382 122.137C237.897 132.531 230.473 165.196 230.473 165.196L257.941 167.423L266.85 154.06L267.592 110.259Z" fill="#E6E6E6"/>
</g>
<defs>
<clipPath id="clip0_12_52">
<rect width="570" height="572" fill="white"/>
</clipPath>
</defs>
</svg>
